# xmcd CD database file
#
# Track frame offsets:
#	150
#	14735
#	24638
#	44494
#	50433
#	64539
#	68724
#
# Disc length: 1067 seconds
#
# Revision: 0
# Processed by: cddbd v1.5.2PL0 Copyright (c) Steve Scherf et al.
# Submitted via: CDex 1.51
#
DISCID=5d042907
DTITLE=Dilettante - Spun
DYEAR=2006
DGENRE=Jazz
TTITLE0=I - Bar Room Brawl
TTITLE1=II - Electric Light
TTITLE2=III - Naked Silence
TTITLE3=IV - Spun
TTITLE4=V - Alien Song
TTITLE5=VI - track 6
TTITLE6=VII - track 7
EXTD=YEAR: 2006
EXTT0=
EXTT1=
EXTT2=
EXTT3=
EXTT4=
EXTT5=
EXTT6=
PLAYORDER=
